<svg width="413" height="262" viewBox="0 0 413 262" fill="none" xmlns="http://www.w3.org/2000/svg">
<rect width="413" height="262" fill="#87BB3F" fill-opacity="0.7"/>
<path d="M229.65 160.285L223.139 157.34C239.105 148.513 257.025 145.294 257.025 145.294L242.207 119.822H240.785L234.748 125.021L233.8 125.129L218.358 86.6717L187.691 123.291L187.582 125.554L201.602 145.253L200.239 145.203L170.985 115.621L172.19 102.011L144.774 140.078L138.238 126.918L130.754 126.843L125.948 112.26L93.0188 152.024H91.2061L126.497 105.846L148.558 128.54L173.77 94.9156L192.256 112.568L219.148 80L267.794 142.391C267.96 142.607 268.134 142.823 268.301 143.048C268.301 143.048 309.055 135.27 347.289 152.506C347.289 152.506 294.561 130.021 229.65 160.285Z" fill="#FFFDFA" stroke="#FFFDFA" stroke-width="0.438014" stroke-miterlimit="10"/>
<path d="M66.0007 175.832C65.8177 175.383 102.373 149.237 152.556 148.571C181.469 148.189 208.611 156.349 221.234 160.135C246.887 167.846 256.616 174.867 282.594 178.353C306.11 181.505 323.756 179.185 323.772 179.617C323.789 180.125 299.74 184.184 270.262 180.407C244.675 177.13 240.16 171.182 209.027 163.412C189.718 158.596 165.545 152.564 137.855 154.187C95.0051 156.699 66.1753 176.231 66.009 175.832H66.0007Z" fill="#FFFDFA" stroke="#FFFDFA" stroke-width="0.438014" stroke-miterlimit="10"/>
</svg>
