<svg width="195" height="72" viewBox="0 0 195 72" fill="none" xmlns="http://www.w3.org/2000/svg">
<path d="M113.356 56.0972L108.886 54.0762C119.847 48.019 132.15 45.8096 132.15 45.8096L121.977 28.3288H121.001L116.856 31.8969L116.205 31.9711L105.603 5.57859L84.5478 30.7094L84.4736 32.2623L94.0992 45.7811L93.1629 45.7468L73.0782 25.4458L73.906 16.1059L55.0831 42.2301L50.5957 33.1985L45.4575 33.1472L42.1576 23.1393L19.5495 50.4282H18.3049L42.5344 18.7377L57.6807 34.3118L74.9908 11.2362L87.6821 23.3506L106.145 1L139.544 43.8172C139.658 43.9656 139.778 44.1141 139.892 44.2682C139.892 44.2682 167.872 38.9303 194.123 50.7593C194.123 50.7593 157.921 35.328 113.356 56.0972Z" fill="#87BB3F" stroke="#87BB3F" stroke-miterlimit="10"/>
<path d="M1.00047 66.7672C0.874869 66.4589 25.9721 48.5157 60.4267 48.0589C80.2773 47.7963 98.9118 53.3968 107.578 55.9944C125.191 61.2866 131.871 66.105 149.706 68.497C165.851 70.6607 177.966 69.0679 177.977 69.3648C177.989 69.713 161.478 72.499 141.239 69.9071C123.672 67.6578 120.572 63.5759 99.1973 58.2437C85.9407 54.9382 69.3443 50.7992 50.333 51.9125C20.9139 53.6366 1.12036 67.0412 1.00618 66.7672H1.00047Z" fill="#87BB3F" stroke="#87BB3F" stroke-miterlimit="10"/>
</svg>
