<svg width="1298" height="752" viewBox="0 0 1298 752" fill="none" xmlns="http://www.w3.org/2000/svg">
<rect width="1298" height="752" fill="#FFFDFA"/>
<path d="M724.493 472.105L703.227 462.491C755.373 433.676 813.901 423.166 813.901 423.166L765.503 340.007H760.859L741.142 356.981L738.045 357.334L687.611 231.781L587.448 351.332L587.095 358.719L632.885 423.03L628.431 422.867L532.886 326.292L536.824 281.861L447.28 406.137L425.933 363.173L401.49 362.929L385.792 315.32L278.242 445.137H272.322L387.585 294.381L459.638 368.469L541.984 258.695L602.359 316.325L690.191 210L849.072 413.687C849.615 414.394 850.185 415.1 850.728 415.833C850.728 415.833 983.835 390.44 1108.71 446.712C1108.71 446.712 936.497 373.303 724.493 472.105Z" fill="#87BB3F" fill-opacity="0.25" stroke="#87BB3F" stroke-opacity="0.25" stroke-miterlimit="10"/>
<path d="M190.002 522.864C189.405 521.397 308.796 436.039 472.701 433.866C567.133 432.617 655.78 459.259 697.008 471.616C780.794 496.792 812.57 519.714 897.415 531.093C974.221 541.386 1031.85 533.809 1031.91 535.221C1031.96 536.878 953.417 550.131 857.138 537.801C773.569 527.101 758.822 507.683 657.138 482.317C594.075 466.592 515.124 446.902 424.684 452.198C284.733 460.4 190.573 524.168 190.029 522.864H190.002Z" fill="#87BB3F" fill-opacity="0.25" stroke="#87BB3F" stroke-opacity="0.25" stroke-miterlimit="10"/>
</svg>
